{
    "asset": {
        "version": "2.0",
        "generator": "Open Asset Import Library (assimp v3.1.31193554)"
    },
    "accessors": [
        {
            "bufferView": 0,
            "byteOffset": 0,
            "componentType": 5126,
            "count": 1473,
            "type": "VEC3",
            "max": [
                15.937089920043946,
                121.22683715820313,
                10.515155792236329
            ],
            "min": [
                -17.131418228149415,
                104.87529754638672,
                -1.0275704860687256
            ]
        },
        {
            "bufferView": 1,
            "byteOffset": 0,
            "componentType": 5126,
            "count": 1473,
            "type": "VEC3",
            "max": [
                0.9995821118354797,
                0.86283278465271,
                0.9994767308235169
            ],
            "min": [
                -0.999655544757843,
                -0.9996469020843506,
                -0.8537969589233398
            ]
        },
        {
            "bufferView": 2,
            "byteOffset": 0,
            "componentType": 5126,
            "count": 1473,
            "type": "VEC2",
            "max": [
                0.7152382135391235,
                0.9918884634971619
            ],
            "min": [
                0.34463825821876528,
                0.8087080121040344
            ]
        },
        {
            "bufferView": 3,
            "byteOffset": 0,
            "componentType": 5123,
            "count": 6924,
            "type": "SCALAR",
            "max": [
                1472.0
            ],
            "min": [
                0.0
            ]
        },
        {
            "bufferView": 4,
            "byteOffset": 0,
            "componentType": 5126,
            "count": 65535,
            "type": "VEC3",
            "max": [
                57.470760345458987,
                193.3007354736328,
                9.086769104003907
            ],
            "min": [
                -59.1242790222168,
                96.87068176269531,
                -20.07218360900879
            ]
        },
        {
            "bufferView": 5,
            "byteOffset": 0,
            "componentType": 5126,
            "count": 65535,
            "type": "VEC3",
            "max": [
                0.999952495098114,
                0.9979811310768127,
                0.999899685382843
            ],
            "min": [
                -0.9999120235443115,
                -0.999975860118866,
                -0.9999973773956299
            ]
        },
        {
            "bufferView": 6,
            "byteOffset": 0,
            "componentType": 5126,
            "count": 65535,
            "type": "VEC2",
            "max": [
                0.9252930283546448,
                0.8515647649765015
            ],
            "min": [
                0.004024624824523926,
                0.014193296432495118
            ]
        },
        {
            "bufferView": 7,
            "byteOffset": 0,
            "componentType": 5123,
            "count": 65535,
            "type": "SCALAR",
            "max": [
                65534.0
            ],
            "min": [
                0.0
            ]
        },
        {
            "bufferView": 8,
            "byteOffset": 0,
            "componentType": 5126,
            "count": 46899,
            "type": "VEC3",
            "max": [
                24.57782745361328,
                193.395751953125,
                9.941993713378907
            ],
            "min": [
                -24.7127742767334,
                102.07817077636719,
                -19.144577026367189
            ]
        },
        {
            "bufferView": 9,
            "byteOffset": 0,
            "componentType": 5126,
            "count": 46899,
            "type": "VEC3",
            "max": [
                0.9994490146636963,
                0.9991211891174316,
                0.9999983906745911
            ],
            "min": [
                -0.999878466129303,
                -0.9991884231567383,
                -0.9983824491500855
            ]
        },
        {
            "bufferView": 10,
            "byteOffset": 0,
            "componentType": 5126,
            "count": 46899,
            "type": "VEC2",
            "max": [
                0.9190027713775635,
                1.0
            ],
            "min": [
                0.0,
                0.011076629161834717
            ]
        },
        {
            "bufferView": 11,
            "byteOffset": 0,
            "componentType": 5123,
            "count": 46899,
            "type": "SCALAR",
            "max": [
                46898.0
            ],
            "min": [
                0.0
            ]
        },
        {
            "bufferView": 12,
            "byteOffset": 0,
            "componentType": 5126,
            "count": 65535,
            "type": "VEC3",
            "max": [
                57.305397033691409,
                193.17495727539063,
                9.058164596557618
            ],
            "min": [
                -58.95972442626953,
                96.86453247070313,
                -19.88136100769043
            ]
        },
        {
            "bufferView": 13,
            "byteOffset": 0,
            "componentType": 5126,
            "count": 65535,
            "type": "VEC3",
            "max": [
                0.9999120235443115,
                0.999975860118866,
                0.9999902248382568
            ],
            "min": [
                -0.999952495098114,
                -0.9991211891174316,
                -0.999899685382843
            ]
        },
        {
            "bufferView": 14,
            "byteOffset": 0,
            "componentType": 5126,
            "count": 65535,
            "type": "VEC2",
            "max": [
                0.9273364543914795,
                1.0
            ],
            "min": [
                0.0,
                0.29503077268600466
            ]
        },
        {
            "bufferView": 15,
            "byteOffset": 0,
            "componentType": 5123,
            "count": 65535,
            "type": "SCALAR",
            "max": [
                65534.0
            ],
            "min": [
                0.0
            ]
        },
        {
            "bufferView": 16,
            "byteOffset": 0,
            "componentType": 5126,
            "count": 46899,
            "type": "VEC3",
            "max": [
                57.470760345458987,
                193.395751953125,
                9.751005172729493
            ],
            "min": [
                -59.1242790222168,
                96.86453247070313,
                -18.505586624145509
            ]
        },
        {
            "bufferView": 17,
            "byteOffset": 0,
            "componentType": 5126,
            "count": 46899,
            "type": "VEC3",
            "max": [
                0.999878466129303,
                0.9999767541885376,
                0.9999565482139587
            ],
            "min": [
                -0.9996984004974365,
                -0.9998423457145691,
                -0.9999983906745911
            ]
        },
        {
            "bufferView": 18,
            "byteOffset": 0,
            "componentType": 5126,
            "count": 46899,
            "type": "VEC2",
            "max": [
                0.9655463099479675,
                1.0
            ],
            "min": [
                0.0,
                0.011076629161834717
            ]
        },
        {
            "bufferView": 19,
            "byteOffset": 0,
            "componentType": 5123,
            "count": 46899,
            "type": "SCALAR",
            "max": [
                46898.0
            ],
            "min": [
                0.0
            ]
        },
        {
            "bufferView": 20,
            "byteOffset": 0,
            "componentType": 5126,
            "count": 841,
            "type": "VEC3",
            "max": [
                53.996002197265628,
                1.1717300415039063,
                26.284225463867189
            ],
            "min": [
                -1.8963890075683594,
                -195.07154846191407,
                -1.1857223510742188
            ]
        },
        {
            "bufferView": 21,
            "byteOffset": 0,
            "componentType": 5126,
            "count": 841,
            "type": "VEC3",
            "max": [
                0.9641648530960083,
                0.5425371527671814,
                0.9785987138748169
            ],
            "min": [
                -0.9881962537765503,
                -0.9390067458152771,
                -0.9760956764221191
            ]
        },
        {
            "bufferView": 22,
            "byteOffset": 0,
            "componentType": 5126,
            "count": 841,
            "type": "VEC2",
            "max": [
                0.9885461926460266,
                0.9717550873756409
            ],
            "min": [
                0.9347259998321533,
                0.762938380241394
            ]
        },
        {
            "bufferView": 23,
            "byteOffset": 0,
            "componentType": 5123,
            "count": 2376,
            "type": "SCALAR",
            "max": [
                840.0
            ],
            "min": [
                0.0
            ]
        },
        {
            "bufferView": 24,
            "byteOffset": 0,
            "componentType": 5126,
            "count": 857,
            "type": "VEC3",
            "max": [
                103.91526794433594,
                1.1717147827148438,
                26.276103973388673
            ],
            "min": [
                -1.2204818725585938,
                -174.25108337402345,
                -1.1856536865234376
            ]
        },
        {
            "bufferView": 25,
            "byteOffset": 0,
            "componentType": 5126,
            "count": 857,
            "type": "VEC3",
            "max": [
                0.9918270707130432,
                0.9387553334236145,
                0.9831794500350952
            ],
            "min": [
                -0.9958402514457703,
                -0.9337947964668274,
                -0.9832232594490051
            ]
        },
        {
            "bufferView": 26,
            "byteOffset": 0,
            "componentType": 5126,
            "count": 857,
            "type": "VEC2",
            "max": [
                0.9973893761634827,
                0.9503811001777649
            ],
            "min": [
                0.9349561929702759,
                0.5562406778335571
            ]
        },
        {
            "bufferView": 27,
            "byteOffset": 0,
            "componentType": 5123,
            "count": 2376,
            "type": "SCALAR",
            "max": [
                856.0
            ],
            "min": [
                0.0
            ]
        }
    ],
    "buffers": [
        {
            "byteLength": 7770344,
            "uri": "01_Design.bin"
        }
    ],
    "bufferViews": [
        {
            "buffer": 0,
            "byteOffset": 0,
            "byteLength": 17676,
            "target": 34962
        },
        {
            "buffer": 0,
            "byteOffset": 17676,
            "byteLength": 17676,
            "target": 34962
        },
        {
            "buffer": 0,
            "byteOffset": 35352,
            "byteLength": 11784,
            "target": 34962
        },
        {
            "buffer": 0,
            "byteOffset": 47136,
            "byteLength": 13848,
            "target": 34963
        },
        {
            "buffer": 0,
            "byteOffset": 60984,
            "byteLength": 786420,
            "target": 34962
        },
        {
            "buffer": 0,
            "byteOffset": 847404,
            "byteLength": 786420,
            "target": 34962
        },
        {
            "buffer": 0,
            "byteOffset": 1633824,
            "byteLength": 524280,
            "target": 34962
        },
        {
            "buffer": 0,
            "byteOffset": 2158104,
            "byteLength": 131070,
            "target": 34963
        },
        {
            "buffer": 0,
            "byteOffset": 2289176,
            "byteLength": 562788,
            "target": 34962
        },
        {
            "buffer": 0,
            "byteOffset": 2851964,
            "byteLength": 562788,
            "target": 34962
        },
        {
            "buffer": 0,
            "byteOffset": 3414752,
            "byteLength": 375192,
            "target": 34962
        },
        {
            "buffer": 0,
            "byteOffset": 3789944,
            "byteLength": 93798,
            "target": 34963
        },
        {
            "buffer": 0,
            "byteOffset": 3883744,
            "byteLength": 786420,
            "target": 34962
        },
        {
            "buffer": 0,
            "byteOffset": 4670164,
            "byteLength": 786420,
            "target": 34962
        },
        {
            "buffer": 0,
            "byteOffset": 5456584,
            "byteLength": 524280,
            "target": 34962
        },
        {
            "buffer": 0,
            "byteOffset": 5980864,
            "byteLength": 131070,
            "target": 34963
        },
        {
            "buffer": 0,
            "byteOffset": 6111936,
            "byteLength": 562788,
            "target": 34962
        },
        {
            "buffer": 0,
            "byteOffset": 6674724,
            "byteLength": 562788,
            "target": 34962
        },
        {
            "buffer": 0,
            "byteOffset": 7237512,
            "byteLength": 375192,
            "target": 34962
        },
        {
            "buffer": 0,
            "byteOffset": 7612704,
            "byteLength": 93798,
            "target": 34963
        },
        {
            "buffer": 0,
            "byteOffset": 7706504,
            "byteLength": 10092,
            "target": 34962
        },
        {
            "buffer": 0,
            "byteOffset": 7716596,
            "byteLength": 10092,
            "target": 34962
        },
        {
            "buffer": 0,
            "byteOffset": 7726688,
            "byteLength": 6728,
            "target": 34962
        },
        {
            "buffer": 0,
            "byteOffset": 7733416,
            "byteLength": 4752,
            "target": 34963
        },
        {
            "buffer": 0,
            "byteOffset": 7738168,
            "byteLength": 10284,
            "target": 34962
        },
        {
            "buffer": 0,
            "byteOffset": 7748452,
            "byteLength": 10284,
            "target": 34962
        },
        {
            "buffer": 0,
            "byteOffset": 7758736,
            "byteLength": 6856,
            "target": 34962
        },
        {
            "buffer": 0,
            "byteOffset": 7765592,
            "byteLength": 4752,
            "target": 34963
        }
    ],
    "materials": [
        {
            "name": "Hoodie",
            "pbrMetallicRoughness": {
                "metallicFactor": 0.0
            }
        }
    ],
    "meshes": [
        {
            "name": "Hoodie_Pack",
            "primitives": [
                {
                    "mode": 4,
                    "material": 0,
                    "indices": 3,
                    "attributes": {
                        "POSITION": 0,
                        "NORMAL": 1,
                        "TEXCOORD_0": 2
                    }
                }
            ]
        },
        {
            "name": "Hoodie_Doubleside",
            "primitives": [
                {
                    "mode": 4,
                    "material": 0,
                    "indices": 7,
                    "attributes": {
                        "POSITION": 4,
                        "NORMAL": 5,
                        "TEXCOORD_0": 6
                    }
                },
                {
                    "mode": 4,
                    "material": 0,
                    "indices": 11,
                    "attributes": {
                        "POSITION": 8,
                        "NORMAL": 9,
                        "TEXCOORD_0": 10
                    }
                },
                {
                    "mode": 4,
                    "material": 0,
                    "indices": 15,
                    "attributes": {
                        "POSITION": 12,
                        "NORMAL": 13,
                        "TEXCOORD_0": 14
                    }
                },
                {
                    "mode": 4,
                    "material": 0,
                    "indices": 19,
                    "attributes": {
                        "POSITION": 16,
                        "NORMAL": 17,
                        "TEXCOORD_0": 18
                    }
                }
            ]
        },
        {
            "name": "pCylinder3",
            "primitives": [
                {
                    "mode": 4,
                    "material": 0,
                    "indices": 23,
                    "attributes": {
                        "POSITION": 20,
                        "NORMAL": 21,
                        "TEXCOORD_0": 22
                    }
                }
            ]
        },
        {
            "name": "pCylinder2",
            "primitives": [
                {
                    "mode": 4,
                    "material": 0,
                    "indices": 27,
                    "attributes": {
                        "POSITION": 24,
                        "NORMAL": 25,
                        "TEXCOORD_0": 26
                    }
                }
            ]
        }
    ],
    "nodes": [
        {
            "name": "RootNode",
            "children": [
                1,
                2,
                3,
                4,
                5,
                6
            ]
        },
        {
            "name": "curve1"
        },
        {
            "name": "curve2",
            "matrix": [
                1.0,
                0.0,
                0.0,
                0.0,
                0.0,
                1.0,
                0.0,
                0.0,
                0.0,
                0.0,
                1.0,
                0.0,
                -3.0633630752563478,
                0.0,
                0.0,
                1.0
            ]
        },
        {
            "name": "Hoodie_Pack",
            "mesh": 0
        },
        {
            "name": "Hoodie_Doubleside",
            "mesh": 1
        },
        {
            "name": "pCylinder3",
            "matrix": [
                0.1335461586713791,
                -0.05728161707520485,
                0.010979813523590565,
                0.0,
                0.05832443758845329,
                0.13115839660167695,
                -0.025140609592199327,
                0.0,
                0.0,
                0.02743367664515972,
                0.14312130212783814,
                0.0,
                -1.6291004419326783,
                159.57627868652345,
                0.516028881072998,
                1.0
            ],
            "mesh": 2
        },
        {
            "name": "pCylinder2",
            "matrix": [
                0.1335461586713791,
                -0.05728161707520485,
                0.010979813523590565,
                0.0,
                0.05832443758845329,
                0.13115839660167695,
                -0.025140609592199327,
                0.0,
                0.0,
                0.02743367664515972,
                0.14312130212783814,
                0.0,
                1.4796557426452637,
                159.64300537109376,
                0.5056267976760864,
                1.0
            ],
            "mesh": 3
        }
    ],
    "scenes": [
        {
            "nodes": [
                0
            ]
        }
    ],
    "scene": 0
}